<?xml version="1.0" encoding="utf-8"?>
<!-- Generator: Adobe Illustrator 16.0.1, SVG Export Plug-In . SVG Version: 6.00 Build 0)  -->
<!DOCTYPE svg PUBLIC "-//W3C//DTD SVG 1.1//EN" "http://www.w3.org/Graphics/SVG/1.1/DTD/svg11.dtd">
<svg version="1.1" id="Layer_1" xmlns="http://www.w3.org/2000/svg" xmlns:xlink="http://www.w3.org/1999/xlink" x="0px" y="0px"
	 width="101px" height="73.008px" viewBox="0 0 101 73.008" enable-background="new 0 0 101 73.008" xml:space="preserve">
<path fill="none" stroke="#ED1D24" stroke-miterlimit="10" d="M60.893,10.414c-4.141,0-8.133,0.429-11.885,1.225
	c-3.75,0.796-7.261,1.959-10.438,3.427c-3.179,1.469-6.022,3.24-8.442,5.254c-2.42,2.015-4.414,4.271-5.894,6.707L0.5,1.28v70.449
	l23.268-25.242c1.402,2.543,3.361,4.899,5.775,7.012c2.414,2.107,5.285,3.967,8.512,5.508c3.226,1.539,6.81,2.764,10.648,3.602
	c3.84,0.838,7.938,1.291,12.189,1.291c5.468,0,10.678-0.748,15.416-2.104c4.74-1.354,9.007-3.312,12.591-5.729
	c3.584-2.418,6.483-5.303,8.487-8.5c2.004-3.199,3.113-6.717,3.113-10.408c0-3.692-1.107-7.211-3.113-10.409
	c-2.004-3.2-4.904-6.081-8.487-8.5s-7.851-4.378-12.591-5.731C71.57,11.161,66.361,10.414,60.893,10.414z"/>
</svg>
