<?xml version="1.0" encoding="utf-8"?>
<!-- Generator: Adobe Illustrator 16.0.1, SVG Export Plug-In . SVG Version: 6.00 Build 0)  -->
<!DOCTYPE svg PUBLIC "-//W3C//DTD SVG 1.1//EN" "http://www.w3.org/Graphics/SVG/1.1/DTD/svg11.dtd">
<svg version="1.1" id="Layer_1" xmlns="http://www.w3.org/2000/svg" xmlns:xlink="http://www.w3.org/1999/xlink" x="0px" y="0px"
	 width="95.403px" height="46.614px" viewBox="2.616 9.629 95.403 46.614" enable-background="new 2.616 9.629 95.403 46.614"
	 xml:space="preserve">
<path fill="none" stroke="#ED1D24" stroke-miterlimit="10" d="M47.875,10.129l-0.784,0.3l0.426,0.798l2.521,2.477l1.112,1.371
	l0.357,1.255l-0.886,0.986l-15.603,3.877l-1.643,0.601l-1.757,1.027l-3.038,2.729l-1.832,2.079L9.999,16.438l-3.484-1.566
	L3.67,14.198l1.821,3.816l2.186,1.202l1.33,1.729l0.647,2.113l0.139,2.354L8.75,34.379l0.859,9.602L9.33,46.818l-0.844,2.81
	l-1.591,2.679l-2.521,2.447l-1.233,0.909L3.12,55.721l0.084,0.021l0.466-0.005l2.44-0.534l6.332-3.348l11.326-8.346l2.508,2.574
	l3.267,2.348l0.983,0.512l16.807,5.614l11.973,1.158l4.043-0.079l23.16-5.062l8.407-3.133l0.904-0.572l0.805-0.741l0.086-0.164
	l-0.079-0.098l-0.424-0.136l-0.231-0.104l-0.171-0.176l-0.053-0.279l0.294-1.045l0.026-0.724l-0.601-4.071l0.027-0.703l-0.109-0.027
	l-2.972,3.674l-0.588,0.525l-0.422,0.132l-8.771-2.373L79.5,39.004l-1.719-1.29l-3.005-3.342l-2.077-3.225l-0.558-1.144
	l-0.168-0.604l0.276,0.104l0.506,0.283l9.374,1.898l1.925,0.157l8.822-1.309l0.141,0.121l0.104,0.322l0.282,1.96l0.095,0.322
	l0.127,0.12l0.228-0.127l0.258-0.33l1.328-2.33l0.191-0.132l1.311-0.156l0.281-0.084l0.191-0.104l0.097-0.126l-0.007-0.151
	l-4.072-5.146l-0.218-0.166l-0.252-0.106l-1.167-0.193l-0.283-0.085l-0.261-0.137l-0.123-0.135l-0.061-0.173l-0.03-0.611
	l-0.031-0.189l-0.078-0.159l-0.147-0.116l-3.105-1.043l-11.365-1.906l-1.91-0.683l-11.58-6.091l-4.259-1.411L53.604,10.5
	L47.875,10.129L47.875,10.129z"/>
</svg>
