<?xml version="1.0" encoding="utf-8"?>
<!-- Generator: Adobe Illustrator 16.0.1, SVG Export Plug-In . SVG Version: 6.00 Build 0)  -->
<!DOCTYPE svg PUBLIC "-//W3C//DTD SVG 1.1//EN" "http://www.w3.org/Graphics/SVG/1.1/DTD/svg11.dtd">
<svg version="1.1" id="Layer_1" xmlns="http://www.w3.org/2000/svg" xmlns:xlink="http://www.w3.org/1999/xlink" x="0px" y="0px"
	 width="95.403px" height="46.614px" viewBox="2.616 9.629 95.403 46.614" enable-background="new 2.616 9.629 95.403 46.614"
	 xml:space="preserve">
<path fill="none" stroke="#ED1D24" stroke-miterlimit="10" d="M47.875,10.129c-4.141,0,9.867,6.95,0.125,7.75
	c-3.75,0.559-5.073,1.095-8.25,2.125c-3.179,1.031-4.83,0.837-7.25,2.25c-2.42,1.415-4.27,3.666-5.75,5.375
	c0,0-16.627-13.097-23.08-13.431l1.821,3.816C12.616,20.389,8.75,29.91,8.75,34.379c0,4.562,3.75,14.25-4.375,20.375
	c-1.472,1.109-1.58,0.988-0.705,0.983c5.49-0.03,20.098-12.228,20.098-12.228c1.402,1.784,3.361,3.438,5.775,4.922
	c2.414,1.478,6.605,1.99,9.832,3.072c3.226,1.08,5.49,2.732,9.328,3.321c3.84,0.588,7.938,0.905,12.189,0.905
	c6.863,0,11.141-2.155,14.607-2.852c4.739-0.95,8.791-1.179,12.375-2.875c3.584-1.697,6.745-1.631,8.75-3.875
	c0.495-0.555-1.357-0.046-0.75-1.375c0.692-1.516-0.625-4.375-0.375-6.125c0.111-0.781-3.25,4.6-4.091,4.304
	C86.99,41.377,84,41.754,79.5,39.004c-4.704-2.875-8.625-10.875-7.25-9.5c0.784,0.784,6.478,1.334,7.78,1.717
	c5.845,1.715,9.657-0.647,12.847-0.688c0.433-0.005,0.355,2.854,0.748,2.846c0.557-0.011,1.56-2.893,2.005-2.919
	c1.441-0.086,2.217-0.286,1.757-0.801c-1.292-1.447-2.384-3.346-3.956-4.968c-0.524-0.541-1.524-0.235-2.181-0.687
	c-0.43-0.296,0.033-1.145-0.471-1.383c-3.582-1.697-9.731-2-14.471-2.949C71.57,18.719,64.25,10.129,47.875,10.129z"/>
</svg>
