<?xml version="1.0" encoding="utf-8"?>
<!-- Generator: Adobe Illustrator 16.0.1, SVG Export Plug-In . SVG Version: 6.00 Build 0)  -->
<!DOCTYPE svg PUBLIC "-//W3C//DTD SVG 1.1//EN" "http://www.w3.org/Graphics/SVG/1.1/DTD/svg11.dtd">
<svg version="1.1" id="Layer_1" xmlns="http://www.w3.org/2000/svg" xmlns:xlink="http://www.w3.org/1999/xlink" x="0px" y="0px"
	 width="95.403px" height="46.614px" viewBox="2.616 9.629 95.403 46.614" enable-background="new 2.616 9.629 95.403 46.614"
	 xml:space="preserve">
<path fill="none" stroke="#ED1D24" stroke-width="0.25" stroke-miterlimit="10" d="M47.875,10.129l-0.784,0.3l2.947,3.274
	l1.47,2.626l-0.886,0.986l-15.603,3.877l-3.4,1.628l-4.869,4.808L9.999,16.438l-6.329-2.24l1.821,3.816l2.186,1.202l1.977,3.842
	L8.75,34.379l0.859,9.602l-1.123,5.647l-4.111,5.126l-1.233,0.909L3.12,55.721l0.084,0.021l2.906-0.539l6.332-3.348L28.75,40.171
	l2.508,2.574l4.25,2.859l11.128,6.586l12.947,2.813l11.322-0.156l15.603-4.272l8.407-3.133l1.716-1.575l-0.879-0.695l0.32-1.769
	l-0.683-4.802l-2.972,3.674l-1.01,0.657l-8.771-2.373l-7.861-6.188l-2.803-4.973l12.081,2.443l7.111-1.752l0.748,2.846l0.485-0.457
	l1.328-2.33l1.502-0.288l0.569-0.315l-4.079-5.298l-2.304-0.822l-0.348-1.249l-1.395-0.6l-11.365-1.906l-1.91-0.683l-11.58-6.091
	L53.604,10.5L47.875,10.129L47.875,10.129z"/>
</svg>
